<svg width="240" height="48" viewBox="0 0 240 48" fill="none" xmlns="http://www.w3.org/2000/svg"><path id="path16" d="M10.9 24l-5.452 5.42L0 24l5.448-5.42L10.901 24zm13.22-13.163l9.336 9.294 5.448-5.42L24.12 0 9.336 14.71l5.448 5.421 9.336-9.294zm18.677 7.742L37.35 24l5.448 5.42L48.24 24l-5.443-5.42zM24.12 37.163l-9.336-9.29-5.448 5.417L24.12 48l14.784-14.71-5.448-5.417-9.336 9.29zm0-7.742L29.568 24l-5.448-5.42L18.672 24l5.448 5.42zm57.497.52v-.075c0-3.535-1.886-5.303-4.954-6.466 1.886-1.055 3.478-2.71 3.478-5.679v-.075c0-4.136-3.327-6.809-8.733-6.809H59.137v26.326H71.72c5.97 0 9.906-2.406 9.906-7.222h-.01zm-7.258-11.254c0 1.955-1.626 2.785-4.195 2.785h-5.358v-5.556h5.745c2.455 0 3.817.975 3.817 2.705l-.01.066zm1.475 10.532c0 1.956-1.55 2.856-4.124 2.856h-6.904v-5.782h6.725c2.988 0 4.312 1.093 4.312 2.86l-.01.066zm18.012 7.944V10.837h-5.839v26.326h5.84zm31.289 0V10.837h-5.764v16.211l-12.395-16.211h-5.368v26.326h5.745V20.427l12.81 16.736h4.972zm32.24 0L146.017 10.65h-5.368l-11.334 26.513h5.933l2.427-5.904h11.189l2.417 5.904h6.094zm-10.58-11.02h-7.051l3.516-8.535 3.535 8.535zm38.324 11.02V10.837h-5.763v16.211l-12.4-16.211h-5.363v26.326h5.74V20.427l12.814 16.736h4.972zm30.044-4.249l-3.699-3.723c-2.078 1.876-3.931 3.081-6.956 3.081-4.534 0-7.673-3.752-7.673-8.272v-.075c0-4.511 3.214-8.197 7.673-8.197 2.644 0 4.713 1.126 6.767 2.968l3.691-4.248c-2.456-2.406-5.439-4.061-10.43-4.061-8.125 0-13.794 6.129-13.794 13.599v.075c0 7.56 5.782 13.538 13.568 13.538 5.094.014 8.115-1.791 10.835-4.685h.018zM240 37.163v-5.158h-14.384v-5.538h12.475v-5.159h-12.475v-5.317h14.177v-5.159h-19.959v26.326l20.166.005z" fill="#D5EAFF"/></svg>