<svg width="240" height="29" viewBox="0 0 240 29" fill="none" xmlns="http://www.w3.org/2000/svg"><g id="Vector" fill="#D5EAFF"><path d="M213.077 24.893c1.29 1.43 8.377 8.283 19.501.33 8.043-6.555 7.842-20.767 7.07-25.058-.27.624-9.612 22.034-26.571 24.728zM239.646.161c-.098-.043-10.446-1.52-20.677 5.376-6.352 4.282-7.192 10.548-6.902 14.724C226.938 18.519 239.309.65 239.646.16z"/><path d="M239.646.16c-.098-.042-10.446-1.518-20.677 5.377-6.352 4.282-7.192 10.548-6.902 14.724C226.938 18.519 239.309.65 239.646.16zM16.59 24.057H5.005v-6.456H16.59c2.896 0 4.376 1.45 4.376 3.327 0 1.812-1.449 3.13-4.376 3.13zm-.378-9.915H5.005V8.706h11.207c3.054 0 4.25 1.12 4.25 2.669 0 1.416-1.385 2.767-4.25 2.767zm2.96 1.647c4.879-.165 6.642-2.701 6.642-5.468 0-3.031-2.299-5.535-7.902-5.535H0v23.126h18.447c4.596 0 8.027-2.01 8.027-6.325 0-3.064-1.92-5.666-7.303-5.798zM32.385 4.786v23.126h5.006V4.785h-5.006zM57.69 9.168h11.017V4.786h-27.04v4.382h11.017V27.91h5.006V9.168zm15.292-4.382v23.126h5.006v-9.026H89.73v-3.789H77.988V8.772h19.076V4.786H72.982zm28.137 0v23.126h5.005V4.785h-5.005zm16.741 5.633l16.59 17.492h5.666V4.787h-4.942v16.669l-15.929-16.67h-6.359v23.126h4.974V10.419zm29.018-5.633v23.126h24.491v-3.888h-19.486v-6.357h11.679v-3.591h-11.679V8.772h19.486V4.786h-24.491zm58.01 0h-6.61l-8.437 8.137-8.374-8.137h-6.705l11.774 11.398-12.214 11.727h6.61l8.846-8.531 8.814 8.532h6.737l-12.246-11.76 11.805-11.366z"/></g></svg>