<svg width="120" height="48" viewBox="0 0 120 48" fill="none" xmlns="http://www.w3.org/2000/svg"><g id="Group 338887" fill="#D5EAFF"><path id="Vector" d="M85 34.723V5.106h6v29.617h-6z"/><path id="Vector_2" d="M15.278 42.894H2V13.277h12.74c6.198 0 9.803 3.245 9.803 8.325 0 3.293-2.316 5.41-3.915 6.115 1.909.83 4.372 2.696 4.372 6.663 0 5.519-4.062 8.514-9.722 8.514zm-1.011-24.46H8.215v6.821h6.052c2.626 0 4.094-1.38 4.094-3.418 0-2.038-1.468-3.402-4.094-3.402zm.391 12.01h-6.46v7.276h6.46c2.806 0 4.143-1.662 4.143-3.67 0-2.006-1.337-3.605-4.143-3.605z"/><path id="Vector_3" d="M42.566 30.743v12.15h-6.1v-12.15L27 13.277h6.667l5.873 11.931 5.793-11.931H52l-9.434 17.466z"/><path id="Vector_4" d="M68.7 42.894H56V13.277h12.186c5.929 0 9.377 3.245 9.377 8.325 0 3.293-2.216 5.41-3.745 6.115 1.826.83 4.182 2.696 4.182 6.663-.016 5.519-3.885 8.514-9.3 8.514zm-.982-24.46h-5.789v6.821h5.789c2.512 0 3.916-1.38 3.916-3.418 0-2.038-1.404-3.402-3.916-3.402zm.374 12.01h-6.178v7.276h6.178c2.684 0 3.963-1.662 3.963-3.67 0-2.006-1.264-3.605-3.963-3.605z"/><path id="Vector_5" d="M109.624 18.435v24.459h-6.265v-24.46H95v-5.157h23v5.158h-8.376z"/></g></svg>