<svg width="196" height="35" viewBox="0 0 196 35" fill="none" xmlns="http://www.w3.org/2000/svg"><path id="Vector" d="M39.558 9.771c-7.12 0-12.684 5.404-12.684 12.637 0 7.233 5.423 12.59 12.684 12.59 7.26 0 12.778-5.45 12.778-12.636 0-7.141-5.423-12.59-12.778-12.59zm.048 20.014c-4.055 0-7.026-3.148-7.026-7.375 0-4.276 2.923-7.422 6.978-7.422 4.103 0 7.072 3.194 7.072 7.422 0 4.227-2.97 7.375-7.024 7.375zM53.891 15.27h3.537v19.26h5.658V10.24H53.89v5.028zm-41.255-.283c2.97 0 5.328 1.832 6.223 4.557h5.989c-1.085-5.825-5.895-9.772-12.164-9.772C5.564 9.771 0 15.175 0 22.41S5.423 35 12.684 35c6.129 0 11.032-3.947 12.118-9.82h-5.943c-.849 2.725-3.206 4.605-6.177 4.605-4.103 0-6.978-3.148-6.978-7.375.002-4.276 2.83-7.424 6.932-7.424zm148.756 5.074l-4.149-.61c-1.981-.28-3.395-.939-3.395-2.49 0-1.691 1.84-2.536 4.338-2.536 2.734 0 4.48 1.174 4.857 3.1h5.469c-.614-4.886-4.386-7.75-10.184-7.75-5.989 0-9.949 3.053-9.949 7.375 0 4.133 2.594 6.53 7.826 7.281l4.149.61c2.029.281 3.16 1.082 3.16 2.584 0 1.927-1.98 2.725-4.715 2.725-3.348 0-5.234-1.362-5.517-3.429h-5.563c.519 4.745 4.243 8.08 11.032 8.08 6.178 0 10.279-2.819 10.279-7.658 0-4.322-2.97-6.577-7.638-7.282zM60.257.235c-2.075 0-3.631 1.503-3.631 3.57 0 2.066 1.555 3.569 3.63 3.569s3.632-1.503 3.632-3.57c0-2.066-1.557-3.57-3.631-3.57zm83.03 18.322c0-5.26-3.206-8.784-9.995-8.784-6.413 0-9.996 3.242-10.704 8.222h5.612c.282-1.926 1.791-3.523 4.997-3.523 2.877 0 4.292 1.268 4.292 2.819 0 2.02-2.594 2.536-5.801 2.865-4.337.47-9.712 1.973-9.712 7.61 0 4.37 3.254 7.188 8.44 7.188 4.055 0 6.601-1.692 7.875-4.37.189 2.396 1.98 3.947 4.48 3.947h3.3v-5.027h-2.782V18.557h-.002zm-5.564 6.108c0 3.242-2.828 5.638-6.271 5.638-2.123 0-3.914-.893-3.914-2.771 0-2.396 2.877-3.054 5.517-3.335 2.546-.235 3.96-.799 4.668-1.88v2.348zM107.689 9.77c-3.159 0-5.8 1.316-7.686 3.524V0h-5.657v34.53h5.563v-3.194c1.886 2.302 4.574 3.664 7.78 3.664 6.79 0 11.93-5.355 11.93-12.59 0-7.235-5.235-12.639-11.93-12.639zm-.848 20.014c-4.055 0-7.026-3.148-7.026-7.375 0-4.228 3.017-7.422 7.072-7.422 4.103 0 6.978 3.148 6.978 7.422 0 4.227-2.97 7.375-7.024 7.375zM80.813 9.771c-3.677 0-6.083 1.503-7.497 3.618V10.24h-5.612v24.288h5.658v-13.2c0-3.713 2.358-6.343 5.847-6.343 3.254 0 5.28 2.302 5.28 5.638V34.53h5.658V20.203c.001-6.11-3.157-10.432-9.334-10.432zM196 21.611c0-6.952-5.092-11.838-11.929-11.838-7.261 0-12.59 5.45-12.59 12.637 0 7.564 5.706 12.59 12.684 12.59 5.894 0 10.515-3.477 11.693-8.409h-5.895c-.848 2.161-2.923 3.383-5.705 3.383-3.632 0-6.366-2.255-6.978-6.202h18.718v-2.16H196zm-18.389-1.88c.896-3.383 3.442-5.026 6.365-5.026 3.206 0 5.658 1.832 6.224 5.026h-12.589z" fill="#D5EAFF"/></svg>