<svg width="240" height="46" viewBox="0 0 240 46" fill="none" xmlns="http://www.w3.org/2000/svg"><g id="Vector" fill="#D5EAFF"><path d="M19.96 0L0 11.5v23L19.96 46l19.96-11.5v-23L19.96 0zm0 0L0 11.5v23L19.96 46l19.96-11.5v-23L19.96 0z"/><path d="M27.84 37.016H25L21.6 33.9v-1.597l3.52-3.354v-5.311l4.6-2.995 5.24 3.953-7.12 12.419zM16.08 28.63l.52-4.991-1.72-4.472h10.16l-1.68 4.472.48 4.991h-7.76zm2.32 5.271L15 37.056h-2.88L4.96 24.597l5.28-3.913 4.64 2.955v5.31l3.52 3.355V33.9zM12.08 9.943H27.8l1.88 7.986H10.24l1.84-7.986zM19.96 0L0 11.5v23L19.96 46l19.96-11.5v-23L19.96 0zm42.36 33.661c-5.28 0-9.16-4.112-9.16-9.184 0-5.07 3.92-9.303 9.2-9.303 3.36 0 5.44 1.237 7.08 3.034l-2.52 2.716c-1.24-1.318-2.56-2.197-4.6-2.197-2.96 0-5.12 2.556-5.12 5.67 0 3.195 2.2 5.75 5.32 5.75 1.92 0 3.32-.918 4.6-2.196l2.44 2.436c-1.76 1.877-3.8 3.274-7.24 3.274zm14.96 0H73.2V15.213h4.08v4.313c1.12-2.635 3.16-4.472 6.28-4.313v4.313h-.24c-3.56 0-6.04 2.316-6.04 7.028v7.107zm27.6-18.527l-9 23.479h-4.12l1.96-4.952L86 15.134h4.36L95.6 28.83l5.04-13.696h4.24zm12 3.554c-2.76 0-5.16 2.236-5.16 5.71 0 3.474 2.44 5.71 5.16 5.71 2.8 0 5.08-2.197 5.08-5.71 0-3.514-2.32-5.71-5.08-5.71zm.92 14.933c-2.92 0-4.76-1.477-6-3.114v8.106h-4.08v-23.48h4.08v3.315c1.32-1.837 3.16-3.314 6-3.314 4.2 0 8.28 3.314 8.28 9.224s-4.04 9.263-8.28 9.263zM135 19.007v8.705c0 1.557.8 2.196 2.2 2.196h1.6v3.634H136c-2.96 0-5.08-1.318-5.08-5.191v-9.344h-2.24v-3.474h2.24v-4.871H135v4.871h3.8v3.474H135zm16.64-.319c-3.28 0-5.36 2.555-5.36 5.67 0 3.154 2.24 5.75 5.4 5.75 3.28 0 5.36-2.556 5.36-5.67.08-3.155-2.2-5.75-5.4-5.75zm0 14.973c-5.4 0-9.4-4.112-9.4-9.184 0-5.11 4.04-9.303 9.48-9.303s9.44 4.112 9.44 9.224c0 5.03-4 9.263-9.52 9.263zm48.44-14.973c-3.28 0-5.36 2.555-5.36 5.67 0 3.154 2.24 5.75 5.4 5.75 3.28 0 5.36-2.556 5.36-5.67.04-3.155-2.2-5.75-5.4-5.75zm0 14.973c-5.4 0-9.4-4.112-9.4-9.184 0-5.11 4.04-9.303 9.48-9.303s9.44 4.112 9.44 9.224c0 5.03-4.04 9.263-9.52 9.263zm33.68-18.527c3.88 0 6.24 2.435 6.24 6.788v11.7h-4.08V23.16c0-2.835-1.32-4.313-3.6-4.313-2.2 0-3.8 1.557-3.8 4.393v10.42h-4.08v-10.5c0-2.756-1.36-4.313-3.6-4.313s-3.8 1.677-3.8 4.432v10.382h-4.08V15.174h4.08v3.034c1.16-1.557 2.68-3.034 5.4-3.034 2.56 0 4.32 1.238 5.28 3.114 1.48-1.916 3.36-3.154 6.04-3.154zm-69.04 14.574l1.76-.998h.24l1.8.998.12.2v2.076l-.12.2-1.8.998h-.24l-1.76-.998-.12-.2v-2.076l.12-.2zM181 33.621c-5.28-.12-9.08-4.312-9-9.383.08-5.071 4.08-9.224 9.4-9.104 3.36.08 5.44 1.357 7.04 3.194l-2.56 2.675c-1.2-1.317-2.52-2.276-4.56-2.316-2.96-.04-5.16 2.436-5.2 5.59-.08 3.195 2.08 5.79 5.2 5.83 1.92.04 3.36-.838 4.64-2.116l2.4 2.476c-1.8 1.877-3.88 3.234-7.36 3.154z"/></g></svg>