<svg width="197" height="35" viewBox="0 0 197 35" fill="none" xmlns="http://www.w3.org/2000/svg"><mask id="path-1-inside-1_12_145" fill="#fff"><path fill-rule="evenodd" clip-rule="evenodd" d="M4 0A4.002 4.002 0 00.096 3.124L32.421 15.17a.8.8 0 01.52.75v4.43a.8.8 0 01-1.08.749L0 9.226v4.222l32.42 12.08a.8.8 0 01.521.75v5.157a.8.8 0 01-.52.75L24.863 35H31a4 4 0 004-4V4a4 4 0 00-4-4H4zm-.41 34.98l17.449-5.36c.754-.23.754-1.297 0-1.529L0 21.631V31a4 4 0 003.59 3.98z"/></mask><path fill-rule="evenodd" clip-rule="evenodd" d="M4 0A4.002 4.002 0 00.096 3.124L32.421 15.17a.8.8 0 01.52.75v4.43a.8.8 0 01-1.08.749L0 9.226v4.222l32.42 12.08a.8.8 0 01.521.75v5.157a.8.8 0 01-.52.75L24.863 35H31a4 4 0 004-4V4a4 4 0 00-4-4H4zm-.41 34.98l17.449-5.36c.754-.23.754-1.297 0-1.529L0 21.631V31a4 4 0 003.59 3.98z" fill="#27314A"/><path d="M.096 3.124l-.293-.065-.057.255.245.091.105-.28zM32.42 15.17l.105-.281-.105.28zm-.558 5.929l.105-.281-.105.28zM0 9.226l.105-.282-.405-.15v.432H0zm0 4.222h-.3v.208l.195.073.105-.281zm32.42 12.08l.105-.28-.105.28zm0 6.656l.105.281-.105-.28zM24.864 35l-.105-.281.105.581V35zm-3.825-5.38l.088.288-.088-.287zm-17.45 5.36l-.03.298.06.006.059-.018-.088-.287zm17.45-6.889l.088-.286-.088.286zM0 21.631l.088-.287-.388-.12v.407H0zM.389 3.189A3.702 3.702 0 014 .3v-.6A4.302 4.302 0 00-.197 3.059l.586.13zm-.398.216L32.316 15.45l.21-.562L.2 2.843l-.21.562zM32.316 15.45a.5.5 0 01.325.469h.6a1.1 1.1 0 00-.716-1.031l-.21.562zm.325.469v4.43h.6v-4.43h-.6zm0 4.43a.5.5 0 01-.674.468l-.21.562a1.1 1.1 0 001.484-1.03h-.6zm-.674.468L.105 8.944l-.21.563 31.862 11.872.21-.562zM.3 13.447v-4.22h-.6v4.222h.6zm32.225 11.8L.105 13.167l-.21.562 32.42 12.08.21-.562zm.716 1.03a1.1 1.1 0 00-.716-1.03l-.21.562a.5.5 0 01.326.469h.6zm0 5.157v-5.156h-.6v5.157h.6zm-.716 1.031a1.1 1.1 0 00.716-1.03h-.6a.5.5 0 01-.325.468l.21.562zm-7.557 2.816l7.557-2.816-.21-.562-7.556 2.816.21.562zM31 34.7h-6.136v.6H31v-.6zm3.7-3.7a3.7 3.7 0 01-3.7 3.7v.6a4.3 4.3 0 004.3-4.3h-.6zm0-27v27h.6V4h-.6zM31 .3A3.7 3.7 0 0134.7 4h.6A4.3 4.3 0 0031-.3v.6zM4 .3h27v-.6H4v.6zm16.951 29.034l-17.45 5.359.177.573 17.45-5.358-.177-.574zm0-.956a.5.5 0 010 .956l.176.574c1.036-.319 1.036-1.785 0-2.103l-.176.573zm-21.04-6.46l21.04 6.46.176-.573L.088 21.344l-.176.573zM.3 31v-9.37h-.6V31h.6zm3.32 3.68A3.7 3.7 0 01.3 31h-.6a4.3 4.3 0 003.86 4.278l.06-.597z" fill="url(#paint0_linear_12_145)" style="mix-blend-mode:overlay" mask="url(#path-1-inside-1_12_145)"/><g filter="url(#filter0_i_12_145)" fill="#27314A"><path d="M72.3 13.322c0 1.357-.425 2.542-1.277 3.555a5.402 5.402 0 011.209 2.723 5.594 5.594 0 01-.365 2.991c-.395.965-1.004 1.733-1.825 2.305a4.705 4.705 0 01-2.692.834H47V8h20.35c1.369 0 2.532.523 3.49 1.57.974 1.03 1.46 2.28 1.46 3.752zm-4.63 8.166c.364 0 .676-.14.935-.417.258-.278.387-.613.387-1.006 0-.392-.129-.727-.387-1.005a1.232 1.232 0 00-.936-.417H50.947v2.845h16.722zm0-6.4c.364 0 .676-.14.935-.418.258-.278.387-.613.387-1.005 0-.392-.129-.72-.387-.981a1.232 1.232 0 00-.936-.417H50.947v2.82h16.722zM79.829 25.73h-3.947V8h3.947v17.73zm27.65-13.463h-10.06V25.73h-3.947V12.267H83.41V8h24.068v4.267zM111.061 8h3.947v13.488h16.836v4.242h-20.783V8zm28.312 17.73h-3.947V8h3.947v17.73zm18.593-10.447c.851.115 1.505.205 1.962.27.456.065 1.102.164 1.939.294a32.51 32.51 0 012.008.32c.486.097 1.095.228 1.825.392.745.147 1.338.302 1.779.465.441.164.943.352 1.506.565.563.196.996.416 1.3.662.32.229.624.49.913.784.304.278.509.589.616.932.106.327.137.679.091 1.055-.015.8-.373 1.504-1.072 2.109-.715.637-1.689 1.16-2.92 1.57a24.555 24.555 0 01-4.495.956 48.456 48.456 0 01-5.658.343c-1.749 0-3.543-.139-5.384-.417a23.496 23.496 0 01-4.676-1.152c-1.415-.54-2.517-1.145-3.308-1.815-.381-.327-.708-.81-.981-1.447-.274-.654-.426-1.218-.457-1.692l3.308.049 3.445.024v.05c.046.392.168.792.365 1.201.32.67 1.171 1.226 2.555 1.668 1.384.425 3.111.637 5.179.637 2.069 0 3.84-.204 5.316-.613 1.49-.425 2.296-.948 2.418-1.57.03-.228-.107-.432-.411-.612-.304-.197-.775-.36-1.414-.49a22.955 22.955 0 00-2.031-.369 74.23 74.23 0 00-2.6-.368h-.137a.193.193 0 00-.091-.024c-4.411-.572-7.559-1.153-9.445-1.741-3.453-1.08-5.194-2.624-5.225-4.635a2.58 2.58 0 01.023-.564h.023c.076-.589.388-1.12.935-1.594.624-.523 1.514-.973 2.67-1.349a24.472 24.472 0 014.152-.834 47.439 47.439 0 019.832-.073c1.156.114 2.304.31 3.445.588.852.197 1.673.49 2.464.883.532.245 1.087.605 1.665 1.08.259.228.487.473.685.735.38.376.661 1.259.844 2.648h-6.502a.292.292 0 01-.046-.098.422.422 0 01-.022-.098c-.107-.327-.236-.58-.388-.76-.533-.768-1.346-1.3-2.441-1.594-1.095-.294-2.502-.441-4.221-.441-1.794 0-3.338.204-4.631.613-1.293.392-2 .874-2.122 1.447-.03.408.495.76 1.574 1.054.883.245 2.829.564 5.841.956zM197 12.267h-10.061V25.73h-3.947V12.267h-10.06V8H197v4.267z"/></g><defs><linearGradient id="paint0_linear_12_145" x1="17.5" y1="0" x2="17.5" y2="3" gradientUnits="userSpaceOnUse"><stop stop-color="#fff" stop-opacity=".48"/><stop offset="1" stop-color="#fff" stop-opacity="0"/></linearGradient><filter id="filter0_i_12_145" x="47" y="8" width="150" height="19" filterUnits="userSpaceOnUse" color-interpolation-filters="sRGB"><feFlood flood-opacity="0" result="BackgroundImageFix"/><feBlend in="SourceGraphic" in2="BackgroundImageFix" result="shape"/><feColorMatrix in="SourceAlpha" values="0 0 0 0 0 0 0 0 0 0 0 0 0 0 0 0 0 0 127 0" result="hardAlpha"/><feOffset dy="1"/><feGaussianBlur stdDeviation="2.5"/><feComposite in2="hardAlpha" operator="arithmetic" k2="-1" k3="1"/><feColorMatrix values="0 0 0 0 1 0 0 0 0 1 0 0 0 0 1 0 0 0 0.6 0"/><feBlend mode="overlay" in2="shape" result="effect1_innerShadow_12_145"/></filter></defs></svg>