<svg width="192" height="30" viewBox="0 0 192 30" fill="none" xmlns="http://www.w3.org/2000/svg"><path d="M18.336.042a18.765 18.765 0 019.65 1.939c4.395 2.161 7.899 6.039 9.523 10.616a18.631 18.631 0 011.115 6.325v7.977c0 .318 0 .668-.064.986-.191.794-.765 1.525-1.529 1.875-.541.254-1.146.286-1.688.19-1.21-.222-2.166-1.366-2.166-2.606v-7.437c.032-.7.032-1.462-.35-2.066-.605-1.144-2.134-1.685-3.312-1.208-1.02.35-1.752 1.399-1.784 2.48v7.532c0 .477.032.954-.127 1.399-.255.89-.988 1.589-1.88 1.843-1.178.318-2.515-.19-3.089-1.271-.414-.636-.382-1.43-.35-2.162v-7.5c-.032-1.272-1.083-2.416-2.325-2.575a2.769 2.769 0 00-2.293.73c-.542.51-.828 1.24-.828 1.971v7.279c0 .604.063 1.24-.16 1.812-.35 1.049-1.4 1.811-2.516 1.78-1.146.063-2.261-.732-2.611-1.78-.191-.54-.16-1.081-.16-1.653v-7.533c0-1.24-.987-2.384-2.197-2.606a2.763 2.763 0 00-2.898 1.335c-.223.413-.35.89-.35 1.366v8.169c0 .795-.351 1.59-.956 2.098-.924.794-2.42.858-3.376.127C.914 28.997.5 28.17.5 27.312V19.05c0-3.115.796-6.23 2.293-8.995a18.886 18.886 0 014.905-5.848C10.66 1.726 14.45.264 18.336.042zm74.431 9.567h-4.14c.16-2.893.764-5.499 3.408-7.152C94.678.837 97.576.455 100.602.71c1.625.127 3.249.477 4.746 1.176 2.643 1.208 3.949 3.274 3.949 6.166v15.352c0 1.875.382 2.225 2.261 2.034.191-.032.414-.063.605-.095.032.095.032.19.032.254v3.115c-1.497.509-3.025.668-4.522.254-1.115-.318-1.816-1.112-2.198-2.161-.191-.54-.318-1.112-.478-1.716-.159.19-.286.35-.445.508-3.281 3.306-7.167 4.704-11.753 3.528-3.249-.826-5.478-3.782-5.574-7.151-.031-1.08.064-2.162.319-3.21.605-2.416 2.325-3.878 4.49-4.863 1.53-.7 3.186-.89 4.842-1.113 1.943-.254 3.854-.477 5.796-.763 1.306-.19 1.975-.89 2.166-2.193.414-2.638-.764-4.386-3.312-5.022a10.926 10.926 0 00-4.65-.158c-2.293.413-3.567 1.716-4.013 3.973.032.317-.032.635-.096.985zm12.199 5.085c-1.911 1.017-3.759 1.272-5.638 1.558-1.56.254-3.153.476-4.682.953-2.006.668-2.93 2.32-2.739 4.545.16 1.844 1.402 3.338 3.408 3.655 3.09.509 5.829-.35 7.994-2.638.637-.667 1.147-1.62 1.274-2.51.287-1.78.255-3.592.383-5.563zm59.016 5.34c-.095.445-.159.826-.255 1.176-1.783 5.435-5.414 7.755-9.809 8.264-7.612.826-11.975-4.132-13.09-9.408-.892-4.196-.765-8.36 1.083-12.3 1.751-3.72 4.554-6.167 8.726-6.898 5.001-.89 12.071 1.59 13.25 9.377.318 2.002.382 4.068.573 6.166h-19.364c.159 2.86.605 5.53 2.707 7.596.86.858 1.974 1.271 3.185 1.494 3.917.7 7.166-1.176 8.44-4.959.127-.413.318-.54.732-.508h3.822zm-18.727-7.31h14.491c-.159-1.685-.446-3.242-1.242-4.704-.764-1.399-1.879-2.416-3.408-2.924-5-1.717-10.16 2.256-9.841 7.628zm29.142 15.828h-4.395V1.282h4.172v3.814c.318-.35.51-.573.701-.795 2.994-3.401 6.752-4.29 11.02-3.242 2.961.731 4.618 2.829 5.191 5.753.223 1.208.382 2.447.382 3.655.032 5.848.032 11.696.032 17.545 0 .159-.032.318-.032.508h-4.491v-.73c0-5.468.032-10.934-.031-16.401 0-1.208-.192-2.448-.542-3.624-.573-1.907-2.102-2.924-4.108-3.02-3.663-.126-6.561 1.813-7.453 5.055-.319 1.175-.414 2.415-.414 3.655-.032 4.8-.032 9.567-.032 14.303v.794zm-57.934-27.27h4.236V12.85c.255-.255.414-.382.573-.54 3.472-3.529 6.944-7.088 10.415-10.616.287-.318.573-.445 1.019-.445 1.625.031 3.281 0 5.064 0-.254.254-.382.413-.541.572-3.058 3.051-6.083 6.134-9.173 9.153-.35.35-.35.573-.127.954 3.344 5.308 6.656 10.616 9.969 15.924.127.19.223.381.382.667-.223.032-.382.032-.573.032h-4.555c-.414 0-.605-.159-.828-.477a4551.154 4551.154 0 01-7.644-12.809c-.127-.19-.223-.381-.382-.604-1.178 1.176-2.325 2.289-3.472 3.465-.159.159-.191.445-.191.667v9.727h-2.452c-.573 0-1.37.16-1.688-.159-.287-.254-.127-1.08-.127-1.652V2.012c.095-.158.095-.413.095-.73zM67.575 1.25c-3.44 3.4-6.784 6.738-10.16 10.075 3.63 5.785 7.166 11.442 10.765 17.227-.287 0-.478.032-.67.032h-4.426c-.414 0-.669-.16-.892-.509a4522.787 4522.787 0 01-7.644-12.809c-.095-.19-.223-.35-.382-.604-.637.668-1.21 1.399-1.911 1.908-1.433 1.08-1.847 2.415-1.752 4.195.16 2.32.032 4.672.032 6.992v.763h-4.204V1.281h4.204v11.38c.096.063.191.126.255.19.127-.19.191-.413.319-.572 3.44-3.528 6.91-7.025 10.35-10.584.319-.318.606-.477 1.083-.445 1.434.031 2.867 0 4.3 0h.733zm8.408 4.545C78.117 2.68 80.378.074 84.582.836V5.51c-1.115.063-2.23.031-3.28.254-2.58.54-4.587 2.892-5 5.753-.065.572-.128 1.144-.128 1.716v15.352h-4.332V1.345h4.14v4.45z" id="Vector" fill="#D5EAFF"/></svg>