<svg width="150" height="18" viewBox="0 0 150 18" fill="none" xmlns="http://www.w3.org/2000/svg"><g filter="url(#filter0_i_6_2)"><path d="M25.3 5.322c0 1.356-.425 2.542-1.277 3.555a5.402 5.402 0 011.209 2.723 5.594 5.594 0 01-.365 2.991c-.396.965-1.004 1.733-1.825 2.306a4.705 4.705 0 01-2.692.833H0V0h20.35c1.369 0 2.532.523 3.49 1.57.974 1.03 1.46 2.28 1.46 3.752zm-4.63 8.166c.364 0 .676-.14.935-.417.258-.278.387-.613.387-1.006 0-.392-.129-.727-.387-1.005a1.232 1.232 0 00-.936-.417H3.947v2.845h16.722zm0-6.4c.364 0 .676-.14.935-.418.258-.278.387-.613.387-1.005 0-.393-.129-.72-.387-.981a1.232 1.232 0 00-.936-.417H3.947v2.82h16.722z" fill="url(#paint0_radial_6_2)"/><path d="M32.829 17.73h-3.947V0h3.947v17.73z" fill="url(#paint1_radial_6_2)"/><path d="M60.48 4.267H50.417V17.73H46.47V4.267H36.41V0h24.068v4.267z" fill="url(#paint2_radial_6_2)"/><path d="M64.06 0h3.948v13.488h16.836v4.242H64.061V0zm28.313 17.73h-3.947V0h3.947v17.73zm18.593-10.447c.851.115 1.505.205 1.962.27.456.066 1.102.164 1.939.294a32.51 32.51 0 012.008.32c.486.097 1.095.228 1.825.392.745.147 1.338.302 1.779.466.441.163.943.351 1.506.564.563.196.996.416 1.3.662.32.229.624.49.913.784.304.278.509.589.616.932.106.327.137.679.091 1.055-.015.8-.373 1.504-1.072 2.109-.715.637-1.689 1.16-2.92 1.57a24.555 24.555 0 01-4.495.956 48.456 48.456 0 01-5.658.343c-1.749 0-3.543-.139-5.384-.417a23.496 23.496 0 01-4.676-1.152c-1.415-.54-2.517-1.145-3.308-1.815-.38-.327-.708-.81-.981-1.447-.274-.654-.426-1.218-.457-1.692l3.308.049 3.445.024v.05c.046.392.168.792.365 1.201.32.67 1.171 1.226 2.555 1.668 1.384.425 3.111.637 5.179.637 2.069 0 3.84-.204 5.316-.613 1.49-.425 2.296-.948 2.418-1.57.03-.228-.107-.432-.411-.612-.304-.197-.775-.36-1.414-.49a22.955 22.955 0 00-2.031-.369 74.23 74.23 0 00-2.6-.367h-.137a.193.193 0 00-.091-.025c-4.411-.572-7.559-1.153-9.445-1.741-3.453-1.08-5.194-2.624-5.225-4.635a2.54 2.54 0 01.023-.564h.023c.076-.589.388-1.12.935-1.594.624-.523 1.514-.973 2.67-1.349a24.472 24.472 0 014.152-.834 47.438 47.438 0 019.832-.073c1.156.114 2.304.31 3.445.588.852.197 1.673.49 2.464.883.532.245 1.087.605 1.665 1.08.259.228.487.473.685.735.38.376.661 1.259.844 2.648h-6.502a.291.291 0 01-.046-.098.42.42 0 01-.022-.098c-.107-.327-.236-.58-.388-.76-.533-.768-1.346-1.3-2.441-1.594-1.095-.294-2.502-.441-4.221-.441-1.794 0-3.338.204-4.631.613-1.293.392-2 .874-2.122 1.446-.03.41.495.76 1.574 1.055.883.245 2.829.564 5.841.956zM150 4.267h-10.061V17.73h-3.947V4.267h-10.06V0H150v4.267z" fill="#C8E4FF"/></g><defs><radialGradient id="paint0_radial_6_2" cx="0" cy="0" r="1" gradientUnits="userSpaceOnUse" gradientTransform="matrix(0 14.5 -120.833 0 37.5 1.5)"><stop stop-color="#5CCCFE"/><stop offset="1" stop-color="#29BDFF"/></radialGradient><radialGradient id="paint1_radial_6_2" cx="0" cy="0" r="1" gradientUnits="userSpaceOnUse" gradientTransform="matrix(0 14.5 -120.833 0 37.5 1.5)"><stop stop-color="#5CCCFE"/><stop offset="1" stop-color="#29BDFF"/></radialGradient><radialGradient id="paint2_radial_6_2" cx="0" cy="0" r="1" gradientUnits="userSpaceOnUse" gradientTransform="matrix(0 14.5 -120.833 0 37.5 1.5)"><stop stop-color="#5CCCFE"/><stop offset="1" stop-color="#29BDFF"/></radialGradient><filter id="filter0_i_6_2" x="0" y="0" width="150" height="19" filterUnits="userSpaceOnUse" color-interpolation-filters="sRGB"><feFlood flood-opacity="0" result="BackgroundImageFix"/><feBlend in="SourceGraphic" in2="BackgroundImageFix" result="shape"/><feColorMatrix in="SourceAlpha" values="0 0 0 0 0 0 0 0 0 0 0 0 0 0 0 0 0 0 127 0" result="hardAlpha"/><feOffset dy="1"/><feGaussianBlur stdDeviation="2.5"/><feComposite in2="hardAlpha" operator="arithmetic" k2="-1" k3="1"/><feColorMatrix values="0 0 0 0 1 0 0 0 0 1 0 0 0 0 1 0 0 0 0.6 0"/><feBlend mode="overlay" in2="shape" result="effect1_innerShadow_6_2"/></filter></defs></svg>