<svg width="35" height="35" viewBox="0 0 35 35" fill="none" xmlns="http://www.w3.org/2000/svg"><mask id="path-1-inside-1_5_18" fill="#fff"><path fill-rule="evenodd" clip-rule="evenodd" d="M4 0A4.002 4.002 0 00.096 3.124L32.421 15.17a.8.8 0 01.52.75v4.43a.8.8 0 01-1.08.749L0 9.226v4.222l32.42 12.08a.8.8 0 01.521.75v5.157a.8.8 0 01-.52.75L24.863 35H31a4 4 0 004-4V4a4 4 0 00-4-4H4zm-.41 34.98l17.449-5.36c.754-.23.754-1.297 0-1.529L0 21.631V31a4 4 0 003.59 3.98z"/></mask><g filter="url(#filter0_i_5_18)"><path fill-rule="evenodd" clip-rule="evenodd" d="M4 0A4.002 4.002 0 00.096 3.124L32.421 15.17a.8.8 0 01.52.75v4.43a.8.8 0 01-1.08.749L0 9.226v4.222l32.42 12.08a.8.8 0 01.521.75v5.157a.8.8 0 01-.52.75L24.863 35H31a4 4 0 004-4V4a4 4 0 00-4-4H4zm-.41 34.98l17.449-5.36c.754-.23.754-1.297 0-1.529L0 21.631V31a4 4 0 003.59 3.98z" fill="url(#paint0_radial_5_18)"/></g><path d="M.096 3.124l-.293-.065-.057.255.245.091.105-.28zM32.42 15.17l.105-.281-.105.28zm-.558 5.929l.105-.281-.105.28zM0 9.226l.105-.282-.405-.15v.432H0zm0 4.222h-.3v.208l.195.073.105-.281zm32.42 12.08l.105-.28-.105.28zm0 6.656l.105.281-.105-.28zM24.864 35l-.105-.281.105.581V35zm-3.825-5.38l.088.288-.088-.287zm-17.45 5.36l-.03.298.06.006.059-.018-.088-.287zm17.45-6.889l.088-.286-.088.286zM0 21.631l.088-.287-.388-.12v.407H0zM.389 3.189A3.702 3.702 0 014 .3v-.6A4.302 4.302 0 00-.197 3.059l.586.13zm-.398.216L32.316 15.45l.21-.562L.2 2.843l-.21.562zM32.316 15.45a.5.5 0 01.325.469h.6a1.1 1.1 0 00-.716-1.031l-.21.562zm.325.469v4.43h.6v-4.43h-.6zm0 4.43a.5.5 0 01-.674.468l-.21.562a1.1 1.1 0 001.484-1.03h-.6zm-.674.468L.105 8.944l-.21.563 31.862 11.872.21-.562zM.3 13.447v-4.22h-.6v4.222h.6zm32.225 11.8L.105 13.167l-.21.562 32.42 12.08.21-.562zm.716 1.03a1.1 1.1 0 00-.716-1.03l-.21.562a.5.5 0 01.326.469h.6zm0 5.157v-5.156h-.6v5.157h.6zm-.716 1.031a1.1 1.1 0 00.716-1.03h-.6a.5.5 0 01-.325.468l.21.562zm-7.557 2.816l7.557-2.816-.21-.562-7.556 2.816.21.562zM31 34.7h-6.136v.6H31v-.6zm3.7-3.7a3.7 3.7 0 01-3.7 3.7v.6a4.3 4.3 0 004.3-4.3h-.6zm0-27v27h.6V4h-.6zM31 .3A3.7 3.7 0 0134.7 4h.6A4.3 4.3 0 0031-.3v.6zM4 .3h27v-.6H4v.6zm16.951 29.034l-17.45 5.359.177.573 17.45-5.358-.177-.574zm0-.956a.5.5 0 010 .956l.176.574c1.036-.319 1.036-1.785 0-2.103l-.176.573zm-21.04-6.46l21.04 6.46.176-.573L.088 21.344l-.176.573zM.3 31v-9.37h-.6V31h.6zm3.32 3.68A3.7 3.7 0 01.3 31h-.6a4.3 4.3 0 003.86 4.278l.06-.597z" fill="url(#paint1_linear_5_18)" style="mix-blend-mode:overlay" mask="url(#path-1-inside-1_5_18)"/><defs><radialGradient id="paint0_radial_5_18" cx="0" cy="0" r="1" gradientUnits="userSpaceOnUse" gradientTransform="rotate(111.991 10.347 12.972) scale(28.8649)"><stop stop-color="#67CFFE"/><stop offset="1" stop-color="#28BCFF"/></radialGradient><linearGradient id="paint1_linear_5_18" x1="17.5" y1="0" x2="17.5" y2="3" gradientUnits="userSpaceOnUse"><stop stop-color="#fff" stop-opacity=".48"/><stop offset="1" stop-color="#fff" stop-opacity="0"/></linearGradient><filter id="filter0_i_5_18" x="0" y="0" width="35" height="36" filterUnits="userSpaceOnUse" color-interpolation-filters="sRGB"><feFlood flood-opacity="0" result="BackgroundImageFix"/><feBlend in="SourceGraphic" in2="BackgroundImageFix" result="shape"/><feColorMatrix in="SourceAlpha" values="0 0 0 0 0 0 0 0 0 0 0 0 0 0 0 0 0 0 127 0" result="hardAlpha"/><feOffset dy="1"/><feGaussianBlur stdDeviation="1"/><feComposite in2="hardAlpha" operator="arithmetic" k2="-1" k3="1"/><feColorMatrix values="0 0 0 0 1 0 0 0 0 1 0 0 0 0 1 0 0 0 0.32 0"/><feBlend mode="overlay" in2="shape" result="effect1_innerShadow_5_18"/></filter></defs></svg>