<svg width="22" height="22" viewBox="0 0 22 22" fill="none" xmlns="http://www.w3.org/2000/svg"><g id="mail-02"><path id="Icon" d="M19.708 16.5L13.62 11m-5.238 0l-6.09 5.5M1.834 6.417l7.485 5.239c.606.424.909.636 1.239.718.29.073.595.073.886 0 .33-.082.633-.294 1.24-.718l7.484-5.24M6.233 18.334h9.534c1.54 0 2.31 0 2.898-.3a2.75 2.75 0 001.202-1.201c.3-.588.3-1.359.3-2.899V8.067c0-1.54 0-2.31-.3-2.899a2.75 2.75 0 00-1.202-1.202c-.588-.3-1.358-.3-2.898-.3H6.233c-1.54 0-2.31 0-2.898.3a2.75 2.75 0 00-1.202 1.202c-.3.588-.3 1.359-.3 2.899v5.866c0 1.54 0 2.31.3 2.899a2.75 2.75 0 001.202 1.202c.588.3 1.358.3 2.898.3z" stroke="#B2BEE2" stroke-width="1.4" stroke-linecap="round" stroke-linejoin="round"/></g></svg>