<svg width="30" height="30" viewBox="0 0 30 30" fill="none" xmlns="http://www.w3.org/2000/svg"><g id="Group 72"><mask id="mask0_12_170" style="mask-type:alpha" maskUnits="userSpaceOnUse" x="0" y="0" width="30" height="30"><circle id="Ellipse 5" cx="14.615" cy="14.615" r="14.615" fill="#D9D9D9"/></mask><g mask="url(#mask0_12_170)"><path id="Vector" d="M14.615-4.615c-10.62 0-19.23 8.61-19.23 19.23 0 10.621 8.61 19.231 19.23 19.231 10.621 0 19.231-8.61 19.231-19.23 0-10.622-8.61-19.231-19.23-19.231zm7.823 15.753c.008.164.01.328.01.489 0 5.007-3.808 10.779-10.775 10.779a10.687 10.687 0 01-5.806-1.703c.295.036.597.05.904.05a7.586 7.586 0 004.703-1.62 3.796 3.796 0 01-3.537-2.629 3.805 3.805 0 001.708-.066 3.79 3.79 0 01-3.038-3.714v-.046a3.8 3.8 0 001.716.475 3.786 3.786 0 01-1.172-5.06 10.77 10.77 0 007.807 3.96 3.789 3.789 0 016.454-3.455 7.605 7.605 0 002.404-.92 3.806 3.806 0 01-1.665 2.098 7.61 7.61 0 002.176-.6 7.679 7.679 0 01-1.89 1.962z" fill="#3C4867"/></g></g></svg>